<svg width="30" height="30" viewBox="0 0 30 30" fill="none" xmlns="http://www.w3.org/2000/svg">
<g clip-path="url(#clip0_103_38)">
<path d="M25 6.25C25.3315 6.25 25.6495 6.3817 25.8839 6.61612C26.1183 6.85054 26.25 7.16848 26.25 7.5C26.25 7.83152 26.1183 8.14946 25.8839 8.38388C25.6495 8.6183 25.3315 8.75 25 8.75H23.75L23.7463 8.83875L22.58 25.1775C22.5351 25.8082 22.2529 26.3985 21.7901 26.8295C21.3274 27.2604 20.7186 27.5 20.0863 27.5H9.9125C9.28017 27.5 8.67133 27.2604 8.20861 26.8295C7.74588 26.3985 7.46364 25.8082 7.41875 25.1775L6.2525 8.84C6.2506 8.81004 6.24977 8.78002 6.25 8.75H5C4.66848 8.75 4.35054 8.6183 4.11612 8.38388C3.8817 8.14946 3.75 7.83152 3.75 7.5C3.75 7.16848 3.8817 6.85054 4.11612 6.61612C4.35054 6.3817 4.66848 6.25 5 6.25H25ZM17.5 2.5C17.8315 2.5 18.1495 2.6317 18.3839 2.86612C18.6183 3.10054 18.75 3.41848 18.75 3.75C18.75 4.08152 18.6183 4.39946 18.3839 4.63388C18.1495 4.8683 17.8315 5 17.5 5H12.5C12.1685 5 11.8505 4.8683 11.6161 4.63388C11.3817 4.39946 11.25 4.08152 11.25 3.75C11.25 3.41848 11.3817 3.10054 11.6161 2.86612C11.8505 2.6317 12.1685 2.5 12.5 2.5H17.5Z" fill="white"/>
</g>
<defs>
<clipPath id="clip0_103_38">
<rect width="30" height="30" fill="white"/>
</clipPath>
</defs>
</svg>
