<svg width="30" height="30" viewBox="0 0 30 30" fill="none" xmlns="http://www.w3.org/2000/svg">
<path fill-rule="evenodd" clip-rule="evenodd" d="M2.8125 6.5625C2.8125 5.56794 3.20759 4.61411 3.91085 3.91085C4.61411 3.20759 5.56794 2.8125 6.5625 2.8125H9.375C10.3696 2.8125 11.3234 3.20759 12.0267 3.91085C12.7299 4.61411 13.125 5.56794 13.125 6.5625V23.4375C13.125 24.4321 12.7299 25.3859 12.0267 26.0891C11.3234 26.7924 10.3696 27.1875 9.375 27.1875H6.5625C5.56794 27.1875 4.61411 26.7924 3.91085 26.0891C3.20759 25.3859 2.8125 24.4321 2.8125 23.4375V6.5625ZM16.875 6.5625C16.875 5.56794 17.2701 4.61411 17.9734 3.91085C18.6766 3.20759 19.6304 2.8125 20.625 2.8125H23.4375C24.4321 2.8125 25.3859 3.20759 26.0891 3.91085C26.7924 4.61411 27.1875 5.56794 27.1875 6.5625V23.4375C27.1875 24.4321 26.7924 25.3859 26.0891 26.0891C25.3859 26.7924 24.4321 27.1875 23.4375 27.1875H20.625C19.6304 27.1875 18.6766 26.7924 17.9734 26.0891C17.2701 25.3859 16.875 24.4321 16.875 23.4375V6.5625Z" fill="white"/>
</svg>
