<svg width="30" height="30" viewBox="0 0 30 30" fill="none" xmlns="http://www.w3.org/2000/svg">
<g clip-path="url(#clip0_103_31)">
<path d="M1.875 15C2.91035 15 3.75 15.8385 3.75 16.875C3.75 19.977 6.27305 22.5 9.375 22.5H18.75V20.1563C18.75 19.6014 19.0768 19.098 19.5838 18.8707C20.0918 18.6504 20.6836 18.7383 21.0996 19.1133L25.7871 23.332C26.0807 23.5957 26.25 23.9766 26.25 24.375C26.25 24.7734 26.0806 25.1531 25.7849 25.4203L21.0974 29.6391C20.8359 29.877 20.4961 30 20.1562 30C19.9594 29.9997 19.7647 29.9586 19.5846 29.8792C19.0781 29.6543 18.75 29.1504 18.75 28.5938V26.25H9.375C4.20586 26.25 0 22.0441 0 16.875C0 15.8379 0.837891 15 1.875 15ZM20.625 7.49999H11.3027L11.25 9.84374C11.25 10.3986 10.9232 10.9019 10.4162 11.1293C10.2305 11.209 10.0371 11.25 9.89648 11.25C9.55594 11.25 9.21855 11.1255 8.95488 10.8893L4.26738 6.67054C3.91992 6.40429 3.75 6.02343 3.75 5.57226C3.75 5.12109 3.91939 4.79413 4.21512 4.52694L8.90262 0.308192C9.31553 -0.0616523 9.90984 -0.153234 10.4161 0.0683087C10.9219 0.347918 11.3027 0.851356 11.3027 1.40624L11.25 3.74999H20.625C25.7941 3.74999 30 7.95702 30 13.125C30 14.1615 29.1604 15 28.125 15C27.0896 15 26.25 14.1615 26.25 13.125C26.25 10.0254 23.7246 7.49999 20.625 7.49999Z" fill="white"/>
</g>
<defs>
<clipPath id="clip0_103_31">
<rect width="30" height="30" fill="white"/>
</clipPath>
</defs>
</svg>
