<svg width="24" height="24" viewBox="0 0 24 24" fill="none" xmlns="http://www.w3.org/2000/svg">
<path d="M9 3V1H15V3H9ZM11 14H13V8H11V14ZM12 22C10.7667 22 9.604 21.7627 8.512 21.288C7.42 20.8133 6.466 20.1673 5.65 19.35C4.83333 18.5333 4.18767 17.579 3.713 16.487C3.23833 15.395 3.00067 14.2327 3 13C3 11.7667 3.23767 10.604 3.713 9.512C4.18833 8.42 4.834 7.466 5.65 6.65C6.46667 5.83333 7.421 5.18767 8.513 4.713C9.605 4.23833 10.7673 4.00067 12 4C13.0333 4 14.025 4.16667 14.975 4.5C15.925 4.83333 16.8167 5.31667 17.65 5.95L19.05 4.55L20.45 5.95L19.05 7.35C19.6833 8.18333 20.1667 9.075 20.5 10.025C20.8333 10.975 21 11.9667 21 13C21 14.2333 20.7623 15.396 20.287 16.488C19.8117 17.58 19.166 18.534 18.35 19.35C17.5333 20.1667 16.579 20.8127 15.487 21.288C14.395 21.7633 13.2327 22.0007 12 22Z" fill="#FF1744"/>
</svg>
